<mxfile host="app.diagrams.net" modified="2022-08-17T23:44:58.654Z" agent="5.0 (Windows NT 10.0; Win64; x64) AppleWebKit/537.36 (KHTML, like Gecko) Chrome/104.0.5112.81 Safari/537.36 Edg/104.0.1293.54" etag="evmTkPsfg37iLMMcE7Zt" version="20.2.4" type="github" pages="2">
  <diagram id="SLyXMzq0PoOMrHNk5x4a" name="第 1 页">
    <mxGraphModel dx="1038" dy="578" grid="1" gridSize="10" guides="1" tooltips="1" connect="1" arrows="1" fold="1" page="1" pageScale="1" pageWidth="980" pageHeight="1390" math="0" shadow="0">
      <root>
        <mxCell id="0" />
        <mxCell id="1" parent="0" />
        <mxCell id="Kj7IUVMaob9a8i4lPGcB-1" value="机器学习&lt;br&gt;深度学习" style="rounded=1;whiteSpace=wrap;html=1;fillColor=#fff2cc;strokeColor=#d6b656;" parent="1" vertex="1">
          <mxGeometry x="460" y="215" width="120" height="60" as="geometry" />
        </mxCell>
        <mxCell id="UbosGQs2nBeVZkxMJnwO-1" value="数学分析" style="ellipse;whiteSpace=wrap;html=1;fillColor=#dae8fc;strokeColor=#6c8ebf;" parent="1" vertex="1">
          <mxGeometry x="200" y="140" width="80" height="50" as="geometry" />
        </mxCell>
        <mxCell id="UbosGQs2nBeVZkxMJnwO-2" value="线性代数" style="ellipse;whiteSpace=wrap;html=1;fillColor=#dae8fc;strokeColor=#6c8ebf;" parent="1" vertex="1">
          <mxGeometry x="320" y="140" width="80" height="50" as="geometry" />
        </mxCell>
        <mxCell id="UbosGQs2nBeVZkxMJnwO-3" value="概率论与&lt;br&gt;数理统计" style="ellipse;whiteSpace=wrap;html=1;fillColor=#d5e8d4;strokeColor=#82b366;" parent="1" vertex="1">
          <mxGeometry x="200" y="220" width="80" height="50" as="geometry" />
        </mxCell>
        <mxCell id="UbosGQs2nBeVZkxMJnwO-4" value="信息论" style="ellipse;whiteSpace=wrap;html=1;fillColor=#f8cecc;strokeColor=#b85450;" parent="1" vertex="1">
          <mxGeometry x="200" y="310" width="80" height="50" as="geometry" />
        </mxCell>
        <mxCell id="UbosGQs2nBeVZkxMJnwO-5" value="线性优化&lt;br&gt;与凸优化" style="ellipse;whiteSpace=wrap;html=1;fillColor=#d5e8d4;strokeColor=#82b366;" parent="1" vertex="1">
          <mxGeometry x="320" y="220" width="80" height="50" as="geometry" />
        </mxCell>
        <mxCell id="UbosGQs2nBeVZkxMJnwO-6" value="信号与系统" style="ellipse;whiteSpace=wrap;html=1;fillColor=#f8cecc;strokeColor=#b85450;" parent="1" vertex="1">
          <mxGeometry x="320" y="310" width="80" height="50" as="geometry" />
        </mxCell>
        <mxCell id="UbosGQs2nBeVZkxMJnwO-7" value="" style="endArrow=classic;html=1;rounded=0;exitX=0.5;exitY=1;exitDx=0;exitDy=0;entryX=0.5;entryY=0;entryDx=0;entryDy=0;" parent="1" source="UbosGQs2nBeVZkxMJnwO-1" target="UbosGQs2nBeVZkxMJnwO-3" edge="1">
          <mxGeometry width="50" height="50" relative="1" as="geometry">
            <mxPoint x="290" y="260" as="sourcePoint" />
            <mxPoint x="340" y="210" as="targetPoint" />
          </mxGeometry>
        </mxCell>
        <mxCell id="UbosGQs2nBeVZkxMJnwO-8" value="" style="endArrow=classic;html=1;rounded=0;exitX=0.5;exitY=1;exitDx=0;exitDy=0;" parent="1" source="UbosGQs2nBeVZkxMJnwO-2" edge="1">
          <mxGeometry width="50" height="50" relative="1" as="geometry">
            <mxPoint x="290" y="260" as="sourcePoint" />
            <mxPoint x="360" y="220" as="targetPoint" />
          </mxGeometry>
        </mxCell>
        <mxCell id="UbosGQs2nBeVZkxMJnwO-9" value="" style="endArrow=classic;html=1;rounded=0;exitX=0.5;exitY=1;exitDx=0;exitDy=0;" parent="1" source="UbosGQs2nBeVZkxMJnwO-1" edge="1">
          <mxGeometry width="50" height="50" relative="1" as="geometry">
            <mxPoint x="290" y="260" as="sourcePoint" />
            <mxPoint x="360" y="220" as="targetPoint" />
          </mxGeometry>
        </mxCell>
        <mxCell id="UbosGQs2nBeVZkxMJnwO-10" value="" style="endArrow=classic;html=1;rounded=0;entryX=0.5;entryY=0;entryDx=0;entryDy=0;exitX=0.5;exitY=1;exitDx=0;exitDy=0;" parent="1" source="UbosGQs2nBeVZkxMJnwO-2" target="UbosGQs2nBeVZkxMJnwO-3" edge="1">
          <mxGeometry width="50" height="50" relative="1" as="geometry">
            <mxPoint x="290" y="260" as="sourcePoint" />
            <mxPoint x="340" y="210" as="targetPoint" />
          </mxGeometry>
        </mxCell>
        <mxCell id="UbosGQs2nBeVZkxMJnwO-11" value="" style="endArrow=classic;html=1;rounded=0;exitX=0.5;exitY=1;exitDx=0;exitDy=0;entryX=0.5;entryY=0;entryDx=0;entryDy=0;" parent="1" source="UbosGQs2nBeVZkxMJnwO-3" target="UbosGQs2nBeVZkxMJnwO-4" edge="1">
          <mxGeometry width="50" height="50" relative="1" as="geometry">
            <mxPoint x="290" y="380" as="sourcePoint" />
            <mxPoint x="340" y="330" as="targetPoint" />
          </mxGeometry>
        </mxCell>
        <mxCell id="UbosGQs2nBeVZkxMJnwO-12" value="" style="endArrow=classic;html=1;rounded=0;exitX=0.5;exitY=1;exitDx=0;exitDy=0;entryX=0.5;entryY=0;entryDx=0;entryDy=0;" parent="1" source="UbosGQs2nBeVZkxMJnwO-5" target="UbosGQs2nBeVZkxMJnwO-6" edge="1">
          <mxGeometry width="50" height="50" relative="1" as="geometry">
            <mxPoint x="290" y="380" as="sourcePoint" />
            <mxPoint x="340" y="330" as="targetPoint" />
          </mxGeometry>
        </mxCell>
        <mxCell id="UbosGQs2nBeVZkxMJnwO-13" value="" style="endArrow=classic;html=1;rounded=0;exitX=0.5;exitY=1;exitDx=0;exitDy=0;entryX=0.5;entryY=0;entryDx=0;entryDy=0;" parent="1" source="UbosGQs2nBeVZkxMJnwO-1" target="UbosGQs2nBeVZkxMJnwO-6" edge="1">
          <mxGeometry width="50" height="50" relative="1" as="geometry">
            <mxPoint x="290" y="380" as="sourcePoint" />
            <mxPoint x="340" y="330" as="targetPoint" />
          </mxGeometry>
        </mxCell>
        <mxCell id="UbosGQs2nBeVZkxMJnwO-14" value="" style="endArrow=classic;html=1;rounded=0;exitX=0.5;exitY=1;exitDx=0;exitDy=0;entryX=0.5;entryY=0;entryDx=0;entryDy=0;" parent="1" source="UbosGQs2nBeVZkxMJnwO-2" target="UbosGQs2nBeVZkxMJnwO-4" edge="1">
          <mxGeometry width="50" height="50" relative="1" as="geometry">
            <mxPoint x="290" y="380" as="sourcePoint" />
            <mxPoint x="340" y="330" as="targetPoint" />
          </mxGeometry>
        </mxCell>
        <mxCell id="UbosGQs2nBeVZkxMJnwO-15" value="" style="endArrow=classic;html=1;rounded=0;exitX=0.5;exitY=1;exitDx=0;exitDy=0;entryX=0.5;entryY=0;entryDx=0;entryDy=0;" parent="1" source="UbosGQs2nBeVZkxMJnwO-5" target="UbosGQs2nBeVZkxMJnwO-4" edge="1">
          <mxGeometry width="50" height="50" relative="1" as="geometry">
            <mxPoint x="290" y="380" as="sourcePoint" />
            <mxPoint x="340" y="330" as="targetPoint" />
          </mxGeometry>
        </mxCell>
        <mxCell id="UbosGQs2nBeVZkxMJnwO-16" value="" style="endArrow=classic;html=1;rounded=0;exitX=0.5;exitY=1;exitDx=0;exitDy=0;entryX=0.5;entryY=0;entryDx=0;entryDy=0;" parent="1" source="UbosGQs2nBeVZkxMJnwO-3" target="UbosGQs2nBeVZkxMJnwO-6" edge="1">
          <mxGeometry width="50" height="50" relative="1" as="geometry">
            <mxPoint x="290" y="380" as="sourcePoint" />
            <mxPoint x="340" y="330" as="targetPoint" />
          </mxGeometry>
        </mxCell>
        <mxCell id="UbosGQs2nBeVZkxMJnwO-17" value="" style="shape=flexArrow;endArrow=classic;html=1;rounded=0;" parent="1" edge="1">
          <mxGeometry width="50" height="50" relative="1" as="geometry">
            <mxPoint x="410" y="245" as="sourcePoint" />
            <mxPoint x="450" y="245" as="targetPoint" />
          </mxGeometry>
        </mxCell>
        <mxCell id="UbosGQs2nBeVZkxMJnwO-18" value="计算导论等" style="ellipse;whiteSpace=wrap;html=1;fillColor=#e1d5e7;strokeColor=#9673a6;" parent="1" vertex="1">
          <mxGeometry x="640" y="175" width="80" height="50" as="geometry" />
        </mxCell>
        <mxCell id="UbosGQs2nBeVZkxMJnwO-19" value="电类工程导论" style="ellipse;whiteSpace=wrap;html=1;fillColor=#e1d5e7;strokeColor=#9673a6;" parent="1" vertex="1">
          <mxGeometry x="640" y="265" width="80" height="50" as="geometry" />
        </mxCell>
        <mxCell id="UbosGQs2nBeVZkxMJnwO-20" value="" style="endArrow=classic;html=1;rounded=0;exitX=0.5;exitY=1;exitDx=0;exitDy=0;entryX=0.5;entryY=0;entryDx=0;entryDy=0;" parent="1" source="UbosGQs2nBeVZkxMJnwO-18" target="UbosGQs2nBeVZkxMJnwO-19" edge="1">
          <mxGeometry width="50" height="50" relative="1" as="geometry">
            <mxPoint x="730" y="145" as="sourcePoint" />
            <mxPoint x="780" y="95" as="targetPoint" />
          </mxGeometry>
        </mxCell>
        <mxCell id="UbosGQs2nBeVZkxMJnwO-21" value="" style="shape=flexArrow;endArrow=classic;html=1;rounded=0;" parent="1" edge="1">
          <mxGeometry width="50" height="50" relative="1" as="geometry">
            <mxPoint x="630" y="245" as="sourcePoint" />
            <mxPoint x="590" y="245" as="targetPoint" />
          </mxGeometry>
        </mxCell>
      </root>
    </mxGraphModel>
  </diagram>
  <diagram id="NvIWiGiOqeqhHgw6yVYe" name="第 2 页">
    <mxGraphModel dx="1038" dy="578" grid="1" gridSize="10" guides="1" tooltips="1" connect="1" arrows="1" fold="1" page="1" pageScale="1" pageWidth="980" pageHeight="1390" math="0" shadow="0">
      <root>
        <mxCell id="0" />
        <mxCell id="1" parent="0" />
        <mxCell id="bDZ5fw6Tge3jMeyn_IFw-1" value="机器学习&lt;br&gt;深度学习" style="rounded=1;whiteSpace=wrap;html=1;fillColor=#fff2cc;strokeColor=#d6b656;" vertex="1" parent="1">
          <mxGeometry x="460" y="215" width="120" height="60" as="geometry" />
        </mxCell>
        <mxCell id="bDZ5fw6Tge3jMeyn_IFw-2" value="数学分析" style="ellipse;whiteSpace=wrap;html=1;fillColor=#dae8fc;strokeColor=#6c8ebf;" vertex="1" parent="1">
          <mxGeometry x="200" y="140" width="80" height="50" as="geometry" />
        </mxCell>
        <mxCell id="bDZ5fw6Tge3jMeyn_IFw-3" value="线性代数" style="ellipse;whiteSpace=wrap;html=1;fillColor=#dae8fc;strokeColor=#6c8ebf;" vertex="1" parent="1">
          <mxGeometry x="320" y="140" width="80" height="50" as="geometry" />
        </mxCell>
        <mxCell id="bDZ5fw6Tge3jMeyn_IFw-4" value="概率论与&lt;br&gt;数理统计" style="ellipse;whiteSpace=wrap;html=1;fillColor=#d5e8d4;strokeColor=#82b366;" vertex="1" parent="1">
          <mxGeometry x="200" y="220" width="80" height="50" as="geometry" />
        </mxCell>
        <mxCell id="bDZ5fw6Tge3jMeyn_IFw-5" value="信息论" style="ellipse;whiteSpace=wrap;html=1;fillColor=#f8cecc;strokeColor=#b85450;" vertex="1" parent="1">
          <mxGeometry x="140" y="310" width="80" height="50" as="geometry" />
        </mxCell>
        <mxCell id="bDZ5fw6Tge3jMeyn_IFw-6" value="线性优化&lt;br&gt;与凸优化" style="ellipse;whiteSpace=wrap;html=1;fillColor=#d5e8d4;strokeColor=#82b366;" vertex="1" parent="1">
          <mxGeometry x="320" y="220" width="80" height="50" as="geometry" />
        </mxCell>
        <mxCell id="bDZ5fw6Tge3jMeyn_IFw-7" value="信号与系统" style="ellipse;whiteSpace=wrap;html=1;fillColor=#f8cecc;strokeColor=#b85450;" vertex="1" parent="1">
          <mxGeometry x="380" y="310" width="80" height="50" as="geometry" />
        </mxCell>
        <mxCell id="bDZ5fw6Tge3jMeyn_IFw-18" value="" style="shape=flexArrow;endArrow=classic;html=1;rounded=0;" edge="1" parent="1">
          <mxGeometry width="50" height="50" relative="1" as="geometry">
            <mxPoint x="410" y="245" as="sourcePoint" />
            <mxPoint x="450" y="245" as="targetPoint" />
          </mxGeometry>
        </mxCell>
        <mxCell id="bDZ5fw6Tge3jMeyn_IFw-19" value="计算导论" style="ellipse;whiteSpace=wrap;html=1;fillColor=#e1d5e7;strokeColor=#9673a6;" vertex="1" parent="1">
          <mxGeometry x="640" y="175" width="80" height="50" as="geometry" />
        </mxCell>
        <mxCell id="bDZ5fw6Tge3jMeyn_IFw-20" value="电类工程导论" style="ellipse;whiteSpace=wrap;html=1;fillColor=#e1d5e7;strokeColor=#9673a6;" vertex="1" parent="1">
          <mxGeometry x="640" y="265" width="80" height="50" as="geometry" />
        </mxCell>
        <mxCell id="bDZ5fw6Tge3jMeyn_IFw-22" value="" style="shape=flexArrow;endArrow=classic;html=1;rounded=0;" edge="1" parent="1">
          <mxGeometry width="50" height="50" relative="1" as="geometry">
            <mxPoint x="630" y="245" as="sourcePoint" />
            <mxPoint x="590" y="245" as="targetPoint" />
          </mxGeometry>
        </mxCell>
        <mxCell id="bDZ5fw6Tge3jMeyn_IFw-23" value="算法设计&lt;br&gt;与分析" style="ellipse;whiteSpace=wrap;html=1;fillColor=#f8cecc;strokeColor=#b85450;" vertex="1" parent="1">
          <mxGeometry x="260" y="310" width="80" height="50" as="geometry" />
        </mxCell>
        <mxCell id="bDZ5fw6Tge3jMeyn_IFw-24" value="" style="shape=flexArrow;endArrow=classic;html=1;rounded=0;" edge="1" parent="1">
          <mxGeometry width="50" height="50" relative="1" as="geometry">
            <mxPoint x="300" y="180" as="sourcePoint" />
            <mxPoint x="300" y="220" as="targetPoint" />
          </mxGeometry>
        </mxCell>
        <mxCell id="bDZ5fw6Tge3jMeyn_IFw-25" value="" style="shape=flexArrow;endArrow=classic;html=1;rounded=0;" edge="1" parent="1">
          <mxGeometry width="50" height="50" relative="1" as="geometry">
            <mxPoint x="299.5" y="260" as="sourcePoint" />
            <mxPoint x="299.5" y="300" as="targetPoint" />
          </mxGeometry>
        </mxCell>
      </root>
    </mxGraphModel>
  </diagram>
</mxfile>
